# xmcd
#
# Track frame offsets:
#	150
#	11805
#	24740
#	36752
#	49612
#	62696
#	72437
#	84941
#	97607
#	108328
#	121699
#	135840
#	150104
#	165401
#	180070
#	192957
#	205788
#	219211
#	232398
#	246305
#
# Disc length: 3461 seconds
#
# Revision: 1
# Processed by: cddbd v1.5PL3 Copyright (c) Steve Scherf et al.
# Submitted via: audiograbber 1.81.03
#
DISCID=f00d8314
DTITLE=Billie Holiday - No Regrets [CD2)
DYEAR=2000
DGENRE=
TTITLE0=Me, Myself and I
TTITLE1=Without Your Love
TTITLE2=He's Funny That Way
TTITLE3=When You're Smiling
TTITLE4=You Go to My Head
TTITLE5=I'm Gonna Lock My Heart
TTITLE6=The Very Thought of You
TTITLE7=I Can't Get Started
TTITLE8=You Can't Be Mine
TTITLE9=That's All I Ask of You
TTITLE10=More Than You Know
TTITLE11=Strange Fruit
TTITLE12=Yesterdays
TTITLE13=Fine and Mellow
TTITLE14=I Gotta Right to Sing the Blues
TTITLE15=Them There Eyes
TTITLE16=Falling In Love Again
TTITLE17=Laughing at Life
TTITLE18=Time on My Hands
TTITLE19=God Bless the Child
EXTD=
EXTT0=
EXTT1=
EXTT2=
EXTT3=
EXTT4=
EXTT5=
EXTT6=
EXTT7=
EXTT8=
EXTT9=
EXTT10=
EXTT11=
EXTT12=
EXTT13=
EXTT14=
EXTT15=
EXTT16=
EXTT17=
EXTT18=
EXTT19=
PLAYORDER=
